<?xml version="1.0" encoding="UTF-8"?>
<svg version="1.1" xmlns="http://www.w3.org/2000/svg" width="504" height="672">
<path d="M0 0 C0 0.66 0 1.32 0 2 C-2.07310581 3.60098244 -4.15023032 5.09070767 -6.3125 6.5625 C-12.80175684 11.09091537 -18.9583462 15.88401683 -25 21 C-25.56251465 21.47228027 -26.1250293 21.94456055 -26.70458984 22.43115234 C-33.1111343 27.81292665 -39.39396859 33.20522024 -45.22265625 39.21875 C-47.01624 41.0162757 -48.8810743 42.6647646 -50.8125 44.3125 C-58.22268671 50.70159799 -65.05416852 57.74185644 -71.3984375 65.18359375 C-72.98590261 66.9840115 -74.64887594 68.64548977 -76.375 70.3125 C-80.16297965 74.03268584 -83.42875282 78.12129566 -86.75390625 82.25390625 C-88.73364937 84.6743574 -90.77028882 87.00119141 -92.875 89.3125 C-97.67269587 94.65796429 -102.04688293 100.32333817 -106.44335938 105.99755859 C-108.07373018 108.0948455 -109.71553216 110.18279019 -111.359375 112.26953125 C-119.5197122 122.65271506 -127.35855853 133.23002324 -135 144 C-135.50772949 144.71542969 -136.01545898 145.43085938 -136.53857422 146.16796875 C-139.5346905 150.39506245 -142.51846249 154.6307276 -145.49853516 158.86914062 C-147.03995714 161.05670665 -148.58750097 163.23982406 -150.13671875 165.421875 C-155.19978934 172.55803252 -160.21612102 179.71014715 -165.03222656 187.01611328 C-172.27623179 198.00075744 -179.63655958 208.90774278 -187 219.8125 C-187.55046997 220.62781189 -188.10093994 221.44312378 -188.66809082 222.28314209 C-196.52132487 233.90933179 -204.446963 245.47825798 -212.4921875 256.97265625 C-215.99262012 261.97589746 -219.43786627 267.01564618 -222.875 272.0625 C-227.06216728 278.20819131 -231.30855506 284.30324942 -235.66967773 290.3269043 C-238.53233123 294.29199786 -241.20239851 298.34722144 -243.74609375 302.5234375 C-244.15988281 303.01070312 -244.57367188 303.49796875 -245 304 C-245.99 304 -246.98 304 -248 304 C-248 303.34 -248 302.68 -248 302 C-247.34 302 -246.68 302 -246 302 C-246.495 300.515 -246.495 300.515 -247 299 C-250.83099678 233.13632456 -209.11587893 165.7934108 -167.5234375 117.92578125 C-165.05318301 115.06166266 -162.67802228 112.13834776 -160.3125 109.1875 C-157.04842902 105.17286724 -153.61324157 101.49911063 -149.90234375 97.8984375 C-147.98224311 95.98227957 -146.20610163 93.99364711 -144.4375 91.9375 C-139.50523697 86.22410935 -134.19015094 81.04711052 -128.46875 76.12890625 C-126.53770496 74.46368544 -124.62491326 72.78318821 -122.71875 71.08984375 C-109.2878567 59.21518849 -95.06959479 48.69795837 -80 39 C-79.01515625 38.35933594 -78.0303125 37.71867187 -77.015625 37.05859375 C-56.92220593 24.32744595 -35.54740519 14.0451634 -13.55859375 5.0625 C-10.24911065 3.6881803 -6.99333597 2.2057033 -3.7421875 0.69921875 C-2 0 -2 0 0 0 Z " fill="#000000" transform="translate(467,312)"/>
<path d="M0 0 C0.99 0 1.98 0 3 0 C3 0.66 3 1.32 3 2 C3.6703125 2.21785156 4.340625 2.43570313 5.03125 2.66015625 C8.94274856 4.42547731 12.10231205 6.83900379 15.5 9.4375 C16.20125 9.96883545 16.9025 10.5001709 17.625 11.04760742 C24.2846861 16.13662706 30.6712111 21.50871796 37 27 C37.85207031 27.71671875 38.70414063 28.4334375 39.58203125 29.171875 C40.31808594 29.79578125 41.05414063 30.4196875 41.8125 31.0625 C42.43769531 31.58972656 43.06289062 32.11695313 43.70703125 32.66015625 C45 34 45 34 45 36 C45.66 36 46.32 36 47 36 C48.3046875 37.29296875 48.3046875 37.29296875 49.875 39.1875 C52.49765631 42.29043699 55.20185983 45.26747683 58.01831055 48.19555664 C116.20697391 109.24139939 145.43347477 199.82527405 145.09765625 283.02734375 C145.09578367 284.39595996 145.09436376 285.76457685 145.09336853 287.13319397 C145.08960932 290.67908689 145.07983821 294.22493672 145.06866455 297.77081299 C145.0583058 301.41165586 145.05384042 305.05250591 145.04882812 308.69335938 C145.03820768 315.7955902 145.02121412 322.89779224 145 330 C144.34 330 143.68 330 143 330 C120.92287846 289.11765167 104.95168123 245.9380496 90.1270752 201.97833252 C69.08446048 139.59073888 46.57729369 76.35425851 12.875 19.5 C12.39611328 18.68684326 11.91722656 17.87368652 11.42382812 17.03588867 C8.37973143 11.97606423 5.03777356 7.32487251 1.32470703 2.73242188 C0 1 0 1 0 0 Z " fill="#000000" transform="translate(30,247)"/>
<path d="M0 0 C1 3 1 3 -0.31665039 6.09326172 C-0.98357016 7.37735715 -1.66144748 8.6557956 -2.34765625 9.9296875 C-2.71045685 10.62301178 -3.07325745 11.31633606 -3.447052 12.03067017 C-4.23258809 13.53034131 -5.02241736 15.02776969 -5.81600952 16.52319336 C-7.92958458 20.51096538 -10.00534254 24.51838951 -12.0859375 28.5234375 C-12.50705307 29.33218323 -12.92816864 30.14092896 -13.36204529 30.97418213 C-28.42941494 59.94993517 -41.82276708 89.86593388 -53.08847046 120.52749634 C-53.92714794 122.8023904 -54.77497649 125.07356591 -55.62695312 127.34350586 C-60.04526208 139.15712848 -64.10868212 151.06575129 -68 163.0625 C-68.30503448 164.00087708 -68.61006897 164.93925415 -68.92434692 165.90606689 C-73.43879638 179.82509042 -77.71749153 193.74877179 -81.2421875 207.95654297 C-82.03604307 211.14475285 -82.86140491 214.32390954 -83.6875 217.50390625 C-96.67819097 268.38957081 -103.2805167 320.61843853 -106 373 C-106.03653687 373.68380737 -106.07307373 374.36761475 -106.11071777 375.07214355 C-107.5560109 402.34456833 -107.10186038 429.70026393 -107 457 C-108.47139031 456.71997442 -109.94037781 456.42729904 -111.40820312 456.12915039 C-112.22647583 455.96749893 -113.04474854 455.80584747 -113.88781738 455.63929749 C-116 455 -116 455 -117.46875 452.93359375 C-117.73171875 451.48146484 -117.73171875 451.48146484 -118 450 C-118.12503906 449.36465332 -118.25007812 448.72930664 -118.37890625 448.07470703 C-118.81225792 445.74333816 -119.16397854 443.40984988 -119.5 441.0625 C-119.62745605 440.18424561 -119.75491211 439.30599121 -119.88623047 438.40112305 C-124.19121541 407.70978339 -125.40612451 376.09465197 -123.3581543 345.1706543 C-122.89829619 338.10872526 -122.90608329 331.07505887 -123 324 C-122.34 324 -121.68 324 -121 324 C-121.01305176 323.32775391 -121.02610352 322.65550781 -121.03955078 321.96289062 C-121.11169816 315.38030085 -120.72974023 309.02362016 -119.875 302.5 C-119.74375732 301.48719971 -119.61251465 300.47439941 -119.47729492 299.4309082 C-114.8622217 265.12748431 -108.00030612 231.25807605 -97.96948242 198.12011719 C-95.95322454 191.45391835 -94.18317915 184.86698216 -93 178 C-92.34 178 -91.68 178 -91 178 C-90.78085938 176.82050781 -90.56171875 175.64101563 -90.3359375 174.42578125 C-88.77935373 167.45646945 -86.1576542 160.84677829 -83.625 154.1875 C-83.35923157 153.48548462 -83.09346313 152.78346924 -82.81964111 152.06018066 C-63.52302289 101.18871246 -38.74265073 51.61342797 -6 8 C-5.43812988 7.24976563 -4.87625977 6.49953125 -4.29736328 5.7265625 C-2.8662309 3.81671069 -1.43376247 1.90787769 0 0 Z " fill="#000000" transform="translate(312,183)"/>
<path d="M0 0 C21.085829 15.16800778 36.17797023 35.77434035 41.46875 61.50390625 C44.47839358 81.31001657 41.82478624 98.99163269 36 118 C21.42556897 111.98012632 8.45288048 92.56840394 2 79 C-8.70122556 52.78230684 -7.75264603 26.87082168 0 0 Z " fill="#000000" transform="translate(173,233)"/>
<path d="M0 0 C-9.30000496 20.0954881 -28.04723876 34.47970721 -48.25 42.25 C-66.52825456 48.34275152 -87.29220189 48.60981628 -106 44 C-101.0095047 27.48555902 -86.94098285 12.07948017 -72.0625 3.703125 C-48.99211345 -8.57839857 -24.50186846 -8.3843603 0 0 Z " fill="#000000" transform="translate(389,238)"/>
<path d="M0 0 C1.32 0.33 2.64 0.66 4 1 C3.67 1.33 3.34 1.66 3 2 C3.66 2.33 4.32 2.66 5 3 C5 3.66 5 4.32 5 5 C5.66 5 6.32 5 7 5 C7 5.66 7 6.32 7 7 C7.56332031 7.22429687 8.12664062 7.44859375 8.70703125 7.6796875 C21.71570293 15.17020032 30.33208536 35.1446383 34.06640625 49 C39.47943279 71.14960712 36.66698817 93.43784075 27 114 C12.11997935 107.06689148 1.87944209 89.69136454 -4 75 C-12.4774211 51.33581763 -11.23834052 24.85510634 -0.953125 1.9921875 C-0.63859375 1.33476562 -0.3240625 0.67734375 0 0 Z " fill="#000000" transform="translate(221,145)"/>
<path d="M0 0 C-1.61015697 10.51481293 -16.27527441 22.18364101 -24.02734375 28.4453125 C-38.85236362 39.25713169 -58.1332332 47.11071163 -76.66796875 47.1328125 C-77.72693359 47.13410156 -78.78589844 47.13539063 -79.87695312 47.13671875 C-80.96943359 47.13285156 -82.06191406 47.12898438 -83.1875 47.125 C-84.7972168 47.13080078 -84.7972168 47.13080078 -86.43945312 47.13671875 C-93.34627003 47.12836204 -100.1344698 46.75245731 -107 46 C-107 36.9282487 -95.77011697 25.31168085 -90 19 C-85.28854314 14.29658317 -80.39595741 10.3398865 -74.62890625 7.0078125 C-72.82485991 5.97771354 -72.82485991 5.97771354 -71 4 C-48.55583099 -6.30480108 -23.47634115 -7.82544705 0 0 Z " fill="#000000" transform="translate(362,313)"/>
<path d="M0 0 C1.25659424 0.0012085 1.25659424 0.0012085 2.53857422 0.00244141 C8.66589424 0.06280326 14.96361159 0.17150017 20.8125 2.1875 C21.3075 3.1775 21.3075 3.1775 21.8125 4.1875 C20.58265786 6.77409674 19.29948091 9.21025234 17.875 11.6875 C17.46258057 12.41074463 17.05016113 13.13398926 16.62524414 13.87915039 C13.18774414 19.7822676 9.30763612 25.04115703 4.8125 30.1875 C4.22339844 30.93128906 3.63429688 31.67507812 3.02734375 32.44140625 C-10.03918918 48.39311843 -30.90368322 58.09553912 -51.1875 60.1875 C-55.33446739 60.29988296 -59.47692554 60.28200295 -63.625 60.25 C-64.73810547 60.24548828 -65.85121094 60.24097656 -66.99804688 60.23632812 C-69.72792101 60.22461193 -72.45768174 60.20820699 -75.1875 60.1875 C-72.04779253 42.21463705 -59.3005943 25.08471995 -45.1875 14.1875 C-31.61688227 4.90663283 -16.47844272 -0.01635091 0 0 Z " fill="#000000" transform="translate(393.1875,147.8125)"/>
<path d="M0 0 C3.67045686 1.22348562 4.16123736 2.68109475 5.85498047 6.01416016 C6.19158691 6.7107373 6.52819336 7.40731445 6.875 8.125 C7.22578613 8.84349121 7.57657227 9.56198242 7.93798828 10.30224609 C18.99460242 33.50842702 21.22143673 57.70844579 12.6171875 82.12109375 C8.62841207 92.1597686 2.79606191 101.63561611 -4 110 C-9.74549306 108.08483565 -11.90357131 101.09810428 -14.58203125 95.97265625 C-24.68853792 75.27350714 -26.832007 52.98966256 -19.77734375 30.9921875 C-15.59183968 19.13350996 -8.39482087 9.25582814 0 0 Z " fill="#000000" transform="translate(288,75)"/>
<path d="M0 0 C3.84367416 3.84367416 2.90653234 11.35857297 3.00683594 16.62451172 C2.94027101 39.75582261 -5.76095843 59.70797624 -22 76 C-23.25296875 77.27230469 -23.25296875 77.27230469 -24.53125 78.5703125 C-33.02385068 86.92853659 -42.31350546 92.01473704 -53 97 C-59.01818342 78.94544975 -52.87221897 55.53525447 -45 39 C-35.02680561 20.60196104 -18.69366043 8.57151711 0 0 Z " fill="#000000" transform="translate(387,45)"/>
<path d="M0 0 C4 1 4 1 4 1 Z " fill="#000000" transform="translate(331,233)"/>
<path d="" fill="#000000" transform="translate(0,0)"/>
<path d="" fill="#000000" transform="translate(0,0)"/>
<path d="" fill="#000000" transform="translate(0,0)"/>
<path d="" fill="#000000" transform="translate(0,0)"/>
<path d="" fill="#000000" transform="translate(0,0)"/>
<path d="" fill="#000000" transform="translate(0,0)"/>
<path d="" fill="#000000" transform="translate(0,0)"/>
<path d="" fill="#000000" transform="translate(0,0)"/>
<path d="" fill="#000000" transform="translate(0,0)"/>
<path d="" fill="#000000" transform="translate(0,0)"/>
<path d="" fill="#000000" transform="translate(0,0)"/>
<path d="" fill="#000000" transform="translate(0,0)"/>
<path d="" fill="#000000" transform="translate(0,0)"/>
<path d="" fill="#000000" transform="translate(0,0)"/>
<path d="" fill="#000000" transform="translate(0,0)"/>
<path d="" fill="#000000" transform="translate(0,0)"/>
<path d="" fill="#000000" transform="translate(0,0)"/>
<path d="" fill="#000000" transform="translate(0,0)"/>
<path d="" fill="#000000" transform="translate(0,0)"/>
<path d="" fill="#000000" transform="translate(0,0)"/>
<path d="" fill="#000000" transform="translate(0,0)"/>
<path d="" fill="#000000" transform="translate(0,0)"/>
<path d="" fill="#000000" transform="translate(0,0)"/>
<path d="" fill="#000000" transform="translate(0,0)"/>
<path d="" fill="#000000" transform="translate(0,0)"/>
<path d="" fill="#000000" transform="translate(0,0)"/>
<path d="" fill="#000000" transform="translate(0,0)"/>
<path d="" fill="#000000" transform="translate(0,0)"/>
<path d="" fill="#000000" transform="translate(0,0)"/>
<path d="" fill="#000000" transform="translate(0,0)"/>
<path d="" fill="#000000" transform="translate(0,0)"/>
<path d="" fill="#000000" transform="translate(0,0)"/>
<path d="" fill="#000000" transform="translate(0,0)"/>
<path d="" fill="#000000" transform="translate(0,0)"/>
<path d="" fill="#000000" transform="translate(0,0)"/>
<path d="" fill="#000000" transform="translate(0,0)"/>
<path d="" fill="#000000" transform="translate(0,0)"/>
<path d="" fill="#000000" transform="translate(0,0)"/>
<path d="" fill="#000000" transform="translate(0,0)"/>
<path d="" fill="#000000" transform="translate(0,0)"/>
<path d="" fill="#000000" transform="translate(0,0)"/>
<path d="" fill="#000000" transform="translate(0,0)"/>
<path d="" fill="#000000" transform="translate(0,0)"/>
<path d="" fill="#000000" transform="translate(0,0)"/>
<path d="" fill="#000000" transform="translate(0,0)"/>
<path d="" fill="#000000" transform="translate(0,0)"/>
<path d="" fill="#000000" transform="translate(0,0)"/>
<path d="" fill="#000000" transform="translate(0,0)"/>
<path d="" fill="#000000" transform="translate(0,0)"/>
<path d="" fill="#000000" transform="translate(0,0)"/>
<path d="" fill="#000000" transform="translate(0,0)"/>
<path d="" fill="#000000" transform="translate(0,0)"/>
<path d="" fill="#000000" transform="translate(0,0)"/>
<path d="" fill="#000000" transform="translate(0,0)"/>
<path d="" fill="#000000" transform="translate(0,0)"/>
<path d="" fill="#000000" transform="translate(0,0)"/>
<path d="" fill="#000000" transform="translate(0,0)"/>
<path d="" fill="#000000" transform="translate(0,0)"/>
<path d="" fill="#000000" transform="translate(0,0)"/>
<path d="" fill="#000000" transform="translate(0,0)"/>
<path d="" fill="#000000" transform="translate(0,0)"/>
<path d="" fill="#000000" transform="translate(0,0)"/>
<path d="" fill="#000000" transform="translate(0,0)"/>
<path d="" fill="#000000" transform="translate(0,0)"/>
<path d="" fill="#000000" transform="translate(0,0)"/>
<path d="" fill="#000000" transform="translate(0,0)"/>
<path d="" fill="#000000" transform="translate(0,0)"/>
<path d="" fill="#000000" transform="translate(0,0)"/>
<path d="" fill="#000000" transform="translate(0,0)"/>
<path d="" fill="#000000" transform="translate(0,0)"/>
<path d="" fill="#000000" transform="translate(0,0)"/>
<path d="" fill="#000000" transform="translate(0,0)"/>
<path d="" fill="#000000" transform="translate(0,0)"/>
<path d="" fill="#000000" transform="translate(0,0)"/>
<path d="" fill="#000000" transform="translate(0,0)"/>
</svg>
